<svg id="Livello_1" data-name="Livello 1" xmlns="http://www.w3.org/2000/svg" viewBox="0 0 742.46288 742.46288"><defs><style>.cls-1{fill:#fff;}</style></defs><title>Senza titolo-1 copia</title><rect width="742.46288" height="742.46288"/><path class="cls-1" d="M765.40385-458.7145H880.40867l43.12678-66.25275H746.65308a63.28541,63.28541,0,0,0-26.56352,5.62523,63.54891,63.54891,0,0,0-24.68844,20.0008L622.97717-393.84174a571.28062,571.28062,0,0,1,128.33865-42.13791Z" transform="translate(-487.61407 770.84401)"/><path class="cls-1" d="M969.0079-441.66256c6.75321.89222,11.38711,1.61837,13.82686,2.01132a483.78617,483.78617,0,0,1,53.583,11.93062c14.16471,3.85933,31.40663,9.083,50.85552,16.1552q-30.92916-47.32565-61.85855-94.65112c-1.53906-2.14425-18.76977-25.28081-49.14273-24.92282-29.50614.34768-46.04766,22.56936-47.73642,24.92282l-40.70945,57.87459C927.1517-446.60146,953.62664-443.69477,969.0079-441.66256Z" transform="translate(-487.61407 770.84401)"/><path class="cls-1" d="M901.97206-334.159h0l58.65956-94.07065a630.94518,630.94518,0,0,0-76.49637-6.0243l.014-.02015A598.88078,598.88078,0,0,0,610.53739-375.7207l-73.89274,107.639H647.27421l53.65486-86.58573,120.83674.24-60.73676,86.34574h97.57429l43.369-66.07724Z" transform="translate(-487.61407 770.84401)"/><path class="cls-1" d="M1100.9818-390.58977A579.45253,579.45253,0,0,0,993.32165-422.7122l55.2191,88.55323H931.64094q-21.2086,33.03879-42.41721,66.0773h291.82263Q1141.01363-329.33572,1100.9818-390.58977Z" transform="translate(-487.61407 770.84401)"/></svg>