<svg xmlns="http://www.w3.org/2000/svg" viewBox="0 0 687.33337 280.5877" style="fill:#ffffff"><g><path d="M-3062.7936,678.91029h122.66669l46-70.66669H-3082.7936a67.50171,67.50171,0,0,0-28.33331,6,67.7829,67.7829,0,0,0-26.33332,21.33332l-77.249,112.52813a609.3427,609.3427,0,0,1,136.88892-44.94525Z" transform="translate(3306.79354 -601.65591)"/><path d="M-2845.6249,697.09828c7.20313.95166,12.14575,1.7262,14.748,2.14532a516.00442,516.00442,0,0,1,57.15283,12.72547c15.10828,4.11645,33.499,9.68811,54.24353,17.2315q-32.98974-50.47851-65.97968-100.957c-1.6416-2.28711-20.02038-26.96508-52.41674-26.58325-31.47193.37085-49.11548,24.073-50.91663,26.58325l-43.42175,61.73035C-2890.26973,691.83033-2862.03109,694.93068-2845.6249,697.09828Z" transform="translate(3306.79354 -601.65591)"/><path d="M-2917.12685,811.76405h-.00012l62.56762-100.33789a672.98428,672.98428,0,0,0-81.59289-6.42566l.01483-.02148a606.55925,606.55925,0,0,0-76.4895,2.43127,606.55783,606.55783,0,0,0-75.24427,11.96906,605.0188,605.0188,0,0,0-140.10668,48.054l-78.81568,114.81024h117.99994l57.22937-92.35431,128.88709.256-64.78309,92.09832h104.075l46.2583-70.47949Z" transform="translate(3306.79354 -601.65591)"/><path d="M-2704.85866,751.57368a618.0584,618.0584,0,0,0-114.83277-34.26251l58.89783,94.45288h-124.68787q-22.62157,35.23985-45.24328,70.47955h311.26459Q-2662.15962,816.90864-2704.85866,751.57368Z" transform="translate(3306.79354 -601.65591)"/></g></svg>